<?xml version="1.0" encoding="UTF-8" standalone="no"?>
<!DOCTYPE svg PUBLIC "-//W3C//DTD SVG 1.1//EN" "http://www.w3.org/Graphics/SVG/1.1/DTD/svg11.dtd">
<svg width="100%" height="100%" viewBox="0 0 424 424" version="1.1" xmlns="http://www.w3.org/2000/svg" xmlns:xlink="http://www.w3.org/1999/xlink" xml:space="preserve" xmlns:serif="http://www.serif.com/" style="fill-rule:evenodd;clip-rule:evenodd;stroke-linejoin:round;stroke-miterlimit:2;">
    <g transform="matrix(1,0,0,1,-2787.57,-336.599)">
        <g transform="matrix(1,0,0,1,2407.03,202.422)">
            <path d="M804.117,155.357L804.117,536.58C804.117,548.269 794.627,557.759 782.938,557.759L401.715,557.759C390.026,557.759 380.536,548.269 380.536,536.58L380.536,155.357C380.536,143.668 390.026,134.178 401.715,134.178L782.938,134.178C794.627,134.178 804.117,143.668 804.117,155.357Z" style="fill:rgb(255,84,0);"/>
        </g>
        <g transform="matrix(1,0,0,1,2408.99,-8.95006)">
            <g transform="matrix(-0.366066,0.286645,0.286645,0.366066,679.564,263.843)">
                <path d="M810.218,540L810.218,211.133C810.218,196.285 798.181,184.248 783.333,184.248L710.3,184.246C703.977,179.46 691.321,169.025 671.007,148.712C634.164,111.869 612.522,81.017 586.35,65.147C571.17,55.943 549.993,49.608 531.042,48.073C516.064,46.859 502.376,48.786 492.742,52.951C480.09,58.421 467.024,70.834 458.662,86.283C450.124,102.06 446.762,120.458 450.41,135.795C452.459,144.411 459.491,157.374 469.464,170.664C470.713,172.329 472.006,174.01 473.33,175.697L374.287,175.697C266.336,175.697 178.693,263.34 178.693,371.291C178.693,479.242 266.336,566.885 374.287,566.885L783.333,566.885C798.181,566.885 810.218,554.848 810.218,540ZM756.447,513.115L374.287,513.115C296.013,513.115 232.464,449.566 232.464,371.291C232.464,293.016 296.013,229.467 374.287,229.467L533.13,229.467C543.977,229.467 553.762,222.949 557.941,212.939C562.119,202.929 559.873,191.389 552.245,183.676C552.245,183.676 528.379,159.59 512.472,138.391C507.973,132.397 503.645,127.239 502.721,123.353C501.854,119.71 503.923,115.624 505.951,111.877C508.154,107.807 510.747,103.747 514.08,102.306C517.233,100.943 521.797,101.27 526.699,101.667C537.552,102.547 549.778,105.855 558.471,111.126C581.828,125.288 600.107,153.854 632.985,186.733C671.662,225.409 688.755,234.538 688.755,234.538C692.791,236.819 697.348,238.018 701.984,238.018L756.447,238.018L756.447,513.115Z" style="fill:white;"/>
            </g>
            <g transform="matrix(0.999648,-0.0265286,0.0265286,0.999648,-22.3878,21.5146)">
                <path d="M511.794,570.047C509.368,566.693 510.122,562 513.476,559.574C516.83,557.149 521.522,557.902 523.948,561.256L569.581,624.353C572.007,627.707 571.253,632.4 567.899,634.826C564.545,637.251 559.852,636.498 557.426,633.144L511.794,570.047Z" style="fill:white;"/>
            </g>
        </g>
    </g>
</svg>
